<svg clip-rule="evenodd" fill-rule="evenodd" height="512" image-rendering="optimizeQuality" shape-rendering="geometricPrecision" text-rendering="geometricPrecision" viewBox="0 0 850 850" width="512" xmlns="http://www.w3.org/2000/svg"><g id="Layer_x0020_1"><circle cx="425" cy="425" fill="#ea4c89" r="425"/><g id="_551744312"><g><path d="m619 681h-388c-4 0-7-3-7-7v-498c0-4 3-7 7-7h274c4 0 7 3 7 7s-3 7-7 7h-267v484h374v-377c0-4 3-7 7-7s7 3 7 7v384c0 4-3 7-7 7z" fill="#fff"/></g><g><path d="m619 297h-114c-4 0-7-3-7-7v-114c0-3 2-5 4-6 3-2 6-1 8 1l114 114c2 2 2 5 1 8-1 2-3 4-6 4zm-107-14h90l-90-90z" fill="#fff"/></g><g><path d="m559 459h-275c-4 0-7-3-7-7s3-7 7-7h275c4 0 7 3 7 7s-3 7-7 7z" fill="#fff"/></g><g><path d="m559 510h-275c-4 0-7-3-7-7s3-7 7-7h275c4 0 7 3 7 7s-3 7-7 7z" fill="#fff"/></g><g><path d="m559 561h-275c-4 0-7-3-7-7s3-7 7-7h275c4 0 7 3 7 7s-3 7-7 7z" fill="#fff"/></g><g><path d="m559 611h-275c-4 0-7-3-7-7s3-7 7-7h275c4 0 7 3 7 7s-3 7-7 7z" fill="#fff"/></g><g><path d="m413 419h-129c-4 0-7-3-7-7v-45c0-26 21-48 49-52 2 0 4 0 5 2 5 4 11 6 17 6 7 0 12-2 17-6 2-1 4-2 6-2 28 4 49 26 49 52v45c0 4-3 7-7 7zm-122-14h115v-38c0-18-15-34-34-38-7 6-15 8-24 8-8 0-16-3-23-8-19 4-34 20-34 38z" fill="#fff"/></g><g><path d="m348 304h-1c-24-4-32-19-35-25-7-7-7-17-5-23-2-13 0-23 6-31 10-14 29-16 29-16h1 11c4 0 7 3 7 7s-3 7-7 7h-11c-1 0-13 2-19 10-4 5-5 13-3 21v4s-3 8 0 10c2 1 3 2 4 4 0 1 4 15 24 18 4 1 7 4 6 8s-4 6-7 6z" fill="#fff"/></g><g><path d="m348 304c-3 0-6-2-7-6 0-4 2-7 6-8 21-3 25-18 25-18 1-2 2-3 4-4 3-2 1-9 1-9-1-2-1-3-1-4 2-9 1-17-3-22-6-9-19-10-19-10-4 0-7-4-7-8 0-3 4-6 8-6 0 0 19 2 29 16 7 8 8 18 6 31 2 6 2 17-5 23-3 6-12 21-36 25z" fill="#fff"/></g><g><path d="m327 329c-1 0-3 0-4-1-3-2-4-6-2-10 9-15 3-23 3-24v1l10-9c1 0 13 16-1 40-1 2-4 3-6 3z" fill="#fff"/></g><g><path d="m370 329c-2 0-4-1-6-3-14-19-8-35-2-41l10 10c-1 1-7 9 3 23 3 3 2 7-1 10-1 1-3 1-4 1z" fill="#fff"/></g></g></g></svg>